<?xml version="1.0" encoding="utf-8" ?>
<svg baseProfile="basic" height="270" version="1.1" width="770" xmlns="http://www.w3.org/2000/svg" xmlns:ev="http://www.w3.org/2001/xml-events" xmlns:xlink="http://www.w3.org/1999/xlink"><defs /><circle cx="50" cy="50" r="10" style="fill: #000000; fill-opacity:100; stroke-width: 2; stroke: #000000" /><circle cx="100" cy="50" r="10" style="fill: #000000; fill-opacity:0; stroke-width: 2; stroke: #000000" /><circle cx="150" cy="50" r="10" style="fill: #000000; fill-opacity:100; stroke-width: 2; stroke: #000000" /><circle cx="200" cy="50" r="10" style="fill: #000000; fill-opacity:100; stroke-width: 2; stroke: #000000" /><circle cx="250" cy="50" r="10" style="fill: #000000; fill-opacity:100; stroke-width: 2; stroke: #000000" /><circle cx="300" cy="50" r="10" style="fill: #000000; fill-opacity:0; stroke-width: 2; stroke: #000000" /><circle cx="350" cy="50" r="10" style="fill: #000000; fill-opacity:100; stroke-width: 2; stroke: #000000" /><circle cx="400" cy="50" r="10" style="fill: #000000; fill-opacity:0; stroke-width: 2; stroke: #000000" /><circle cx="450" cy="50" r="10" style="fill: #000000; fill-opacity:0; stroke-width: 2; stroke: #000000" /><circle cx="500" cy="50" r="10" style="fill: #000000; fill-opacity:0; stroke-width: 2; stroke: #000000" /><circle cx="550" cy="50" r="10" style="fill: #000000; fill-opacity:100; stroke-width: 2; stroke: #000000" /><circle cx="600" cy="50" r="10" style="fill: #000000; fill-opacity:0; stroke-width: 2; stroke: #000000" /><circle cx="650" cy="50" r="10" style="fill: #000000; fill-opacity:100; stroke-width: 2; stroke: #000000" /><circle cx="700" cy="50" r="10" style="fill: #000000; fill-opacity:0; stroke-width: 2; stroke: #000000" /><circle cx="50" cy="100" r="10" style="fill: #c8c8c8; fill-opacity:100; stroke-width: 2; stroke: #c8c8c8" /><circle cx="50" cy="150" r="10" style="fill: #c8c8c8; fill-opacity:100; stroke-width: 2; stroke: #c8c8c8" /><circle cx="50" cy="200" r="10" style="fill: #c8c8c8; fill-opacity:100; stroke-width: 2; stroke: #c8c8c8" /><circle cx="50" cy="250" r="10" style="fill: #c8c8c8; fill-opacity:100; stroke-width: 2; stroke: #c8c8c8" /><circle cx="100" cy="100" r="10" style="fill: #c8c8c8; fill-opacity:100; stroke-width: 2; stroke: #c8c8c8" /><circle cx="150" cy="100" r="10" style="fill: #c8c8c8; fill-opacity:100; stroke-width: 2; stroke: #c8c8c8" /><circle cx="150" cy="150" r="10" style="fill: #c8c8c8; fill-opacity:100; stroke-width: 2; stroke: #c8c8c8" /><circle cx="200" cy="100" r="10" style="fill: #c8c8c8; fill-opacity:100; stroke-width: 2; stroke: #c8c8c8" /><circle cx="250" cy="100" r="10" style="fill: #c8c8c8; fill-opacity:100; stroke-width: 2; stroke: #c8c8c8" /><circle cx="250" cy="150" r="10" style="fill: #c8c8c8; fill-opacity:100; stroke-width: 2; stroke: #c8c8c8" /><circle cx="250" cy="200" r="10" style="fill: #c8c8c8; fill-opacity:100; stroke-width: 2; stroke: #c8c8c8" /><circle cx="300" cy="100" r="10" style="fill: #c8c8c8; fill-opacity:100; stroke-width: 2; stroke: #c8c8c8" /><circle cx="350" cy="100" r="10" style="fill: #c8c8c8; fill-opacity:100; stroke-width: 2; stroke: #c8c8c8" /><circle cx="350" cy="150" r="10" style="fill: #c8c8c8; fill-opacity:100; stroke-width: 2; stroke: #c8c8c8" /><circle cx="400" cy="100" r="10" style="fill: #c8c8c8; fill-opacity:100; stroke-width: 2; stroke: #c8c8c8" /><circle cx="450" cy="100" r="10" style="fill: #c8c8c8; fill-opacity:100; stroke-width: 2; stroke: #c8c8c8" /><circle cx="450" cy="150" r="10" style="fill: #c8c8c8; fill-opacity:100; stroke-width: 2; stroke: #c8c8c8" /><circle cx="450" cy="200" r="10" style="fill: #c8c8c8; fill-opacity:100; stroke-width: 2; stroke: #c8c8c8" /><circle cx="450" cy="250" r="10" style="fill: #c8c8c8; fill-opacity:100; stroke-width: 2; stroke: #c8c8c8" /><circle cx="500" cy="100" r="10" style="fill: #c8c8c8; fill-opacity:100; stroke-width: 2; stroke: #c8c8c8" /><circle cx="550" cy="100" r="10" style="fill: #c8c8c8; fill-opacity:100; stroke-width: 2; stroke: #c8c8c8" /><circle cx="550" cy="150" r="10" style="fill: #c8c8c8; fill-opacity:100; stroke-width: 2; stroke: #c8c8c8" /><circle cx="600" cy="100" r="10" style="fill: #c8c8c8; fill-opacity:100; stroke-width: 2; stroke: #c8c8c8" /><circle cx="650" cy="100" r="10" style="fill: #c8c8c8; fill-opacity:100; stroke-width: 2; stroke: #c8c8c8" /><circle cx="650" cy="150" r="10" style="fill: #c8c8c8; fill-opacity:100; stroke-width: 2; stroke: #c8c8c8" /><circle cx="650" cy="200" r="10" style="fill: #c8c8c8; fill-opacity:100; stroke-width: 2; stroke: #c8c8c8" /><circle cx="700" cy="100" r="10" style="fill: #c8c8c8; fill-opacity:100; stroke-width: 2; stroke: #c8c8c8" /></svg>